# xmcd CD database file
#
# Track frame offsets:
#	150
#	23085
#	44930
#	61157
#	78594
#	95452
#	115207
#	131671
#	156313
#	175733
#
# Disc length: 2592 seconds
#
# Revision: 2
# Processed by: cddbd v1.5.2PL0 Copyright (c) Steve Scherf et al.
# Submitted via: CDex 1.51
#
DISCID=840a1e0a
DTITLE=Souvenir - 64
DYEAR=2007
DGENRE=Indiepop
TTITLE0=Accident à Londres
TTITLE1=Una Semaine En Ballon
TTITLE2=Tic-tac
TTITLE3=Les Surfeurs
TTITLE4=Sous-marin
TTITLE5=Evangeline
TTITLE6=Deux Mille Trois
TTITLE7=Allô, Allô
TTITLE8=Technicolor
TTITLE9=Rumeurs
EXTD=YEAR: 2007
EXTT0=
EXTT1=
EXTT2=
EXTT3=
EXTT4=
EXTT5=
EXTT6=
EXTT7=
EXTT8=
EXTT9=
PLAYORDER=
